<svg xmlns="http://www.w3.org/2000/svg" viewBox="145 2 25 21" style="background-color: #000; color: #fff;" width="80" height="80">
  <g fill="currentColor">
    <path d="M147.473 8.21195V8.69013V20.3618H150.032V10.1815L167.216 20.3618V17.2405L147.473 5.40039V8.21195Z" />
    <path d="M164.759 7.94414L166.061 8.71517V8.08955L165.395 7.69051C165.437 7.68172 165.48 7.66954 165.521 7.65466C165.869 7.53157 166.061 7.24209 166.061 6.84034C166.061 6.57725 165.966 6.33579 165.801 6.17753C165.583 5.9638 165.277 5.93945 165.065 5.93945H164.191V8.63807H164.758V7.94346L164.759 7.94414ZM164.908 7.22856H164.76V6.47715H165.043C165.261 6.47715 165.495 6.57251 165.495 6.84102C165.495 7.10953 165.297 7.22856 164.908 7.22856H164.908Z" />
    <path d="M165.127 10.1622C166.714 10.1622 168 8.87583 168 7.28913C168 5.70242 166.714 4.41602 165.127 4.41602C163.54 4.41602 162.254 5.70242 162.254 7.28913C162.254 8.87583 163.54 10.1622 165.127 10.1622ZM165.127 5.22763C166.264 5.22763 167.189 6.15219 167.189 7.28913C167.189 8.42606 166.264 9.35062 165.127 9.35062C163.99 9.35062 163.066 8.42606 163.066 7.28913C163.066 6.15219 163.99 5.22763 165.127 5.22763Z" />
  </g>
</svg>